<?xml version="1.0" standalone="no"?>
<!DOCTYPE svg PUBLIC "-//W3C//DTD SVG 20010904//EN"
 "http://www.w3.org/TR/2001/REC-SVG-20010904/DTD/svg10.dtd">
<svg version="1.0" xmlns="http://www.w3.org/2000/svg"
 width="1040.000000pt" height="1040.000000pt" viewBox="0 0 1040.000000 1040.000000"
 preserveAspectRatio="xMidYMid meet">
<metadata>
Created by potrace 1.14, written by Peter Selinger 2001-2017
</metadata>
<g transform="translate(0.000000,1040.000000) scale(0.100000,-0.100000)"
fill="#000000" stroke="none">
<path d="M4437 9775 c-58 -39 -62 -49 -22 -50 25 0 30 -5 40 -40 7 -22 15 -59
18 -82 l7 -42 -34 6 c-85 14 -152 -26 -192 -112 -67 -143 18 -325 151 -325 46
0 100 23 117 49 16 26 28 27 28 2 0 -11 4 -22 9 -25 8 -5 131 68 131 79 0 3
-14 4 -32 3 -30 -3 -33 0 -45 42 -7 25 -32 153 -56 285 -32 174 -48 240 -58
242 -8 1 -36 -14 -62 -32z m28 -268 c28 -28 34 -45 49 -127 10 -52 20 -105 23
-117 8 -33 -40 -73 -88 -73 -68 0 -121 62 -140 165 -26 143 70 238 156 152z"/>
<path d="M6197 9742 c-3 -4 9 -14 28 -21 19 -6 37 -20 40 -30 7 -23 -92 -479
-111 -508 -11 -17 -24 -23 -51 -23 -60 0 -28 -13 95 -41 116 -26 161 -28 106
-4 -61 25 -61 23 -4 282 28 131 58 248 66 261 11 16 24 22 51 22 61 0 26 16
-87 40 -58 13 -110 25 -116 27 -7 2 -14 0 -17 -5z"/>
<path d="M5138 9623 c-32 -15 -58 -30 -58 -35 0 -5 9 -7 19 -3 11 3 26 -1 35
-10 13 -14 16 -42 16 -164 0 -152 -5 -171 -42 -171 -10 0 -18 -4 -18 -10 0 -6
42 -10 105 -10 63 0 105 4 105 10 0 6 -8 10 -18 10 -39 0 -49 29 -55 157 -5
116 -4 123 19 157 28 40 32 42 60 21 43 -33 98 -1 75 44 -24 45 -72 41 -121
-10 l-40 -41 0 41 c0 48 -4 49 -82 14z"/>
<path d="M5475 9623 c-61 -18 -80 -33 -42 -33 16 0 30 -7 34 -16 10 -27 -13
-302 -27 -319 -7 -8 -21 -15 -31 -15 -11 0 -19 -4 -19 -10 0 -5 17 -10 39 -10
21 0 66 -3 100 -6 43 -5 61 -3 61 5 0 6 -8 11 -19 11 -39 0 -44 22 -33 159 5
71 13 134 17 141 4 7 27 21 50 31 33 15 49 17 69 9 41 -15 47 -47 36 -178 -14
-158 -15 -161 -50 -169 -48 -9 -34 -23 24 -23 29 0 74 -3 100 -6 49 -7 61 4
24 21 -23 10 -23 12 -20 171 4 181 -3 211 -57 234 -41 17 -90 6 -141 -31 l-43
-31 7 41 c7 48 2 49 -79 24z"/>
<path d="M4795 9611 c-72 -44 -96 -94 -96 -193 0 -106 37 -173 116 -209 51
-23 79 -23 132 0 48 22 91 80 100 135 7 46 -9 47 -26 0 -15 -40 -62 -74 -104
-74 -74 0 -149 74 -151 148 l-1 37 135 12 c74 6 137 12 139 12 2 1 1 15 -3 32
-8 41 -41 86 -76 104 -41 21 -128 19 -165 -4z m116 -40 c27 -28 38 -64 22 -74
-5 -3 -46 -6 -93 -8 l-85 -4 4 25 c6 48 51 89 99 90 13 0 37 -13 53 -29z"/>
<path d="M3468 9513 l-78 -36 -2 -259 -3 -259 -195 165 c-107 91 -197 166
-201 166 -11 0 -159 -69 -159 -75 0 -2 20 -2 44 1 39 6 46 4 60 -18 32 -49
206 -440 206 -463 0 -16 -10 -30 -29 -41 -17 -10 -28 -21 -25 -25 6 -10 187
75 192 91 3 9 -1 9 -16 1 -30 -16 -57 -14 -74 7 -17 19 -190 393 -185 398 2 2
95 -75 207 -171 112 -96 207 -175 212 -175 4 0 8 125 8 277 0 176 3 274 10
267 18 -18 180 -386 180 -409 0 -17 -9 -29 -30 -40 -17 -9 -28 -20 -25 -25 3
-5 59 17 125 47 65 31 117 60 115 64 -3 4 -19 2 -35 -4 -22 -8 -35 -9 -48 -1
-21 14 -222 448 -222 481 0 15 10 30 31 42 55 34 16 30 -63 -6z"/>
<path d="M3885 9446 c-47 -20 -91 -77 -105 -135 -23 -96 9 -188 87 -247 49
-37 98 -49 151 -34 98 26 152 99 152 205 0 132 -83 225 -199 225 -31 -1 -70
-7 -86 -14z m106 -39 c71 -48 132 -201 109 -272 -14 -43 -44 -65 -89 -65 -49
0 -94 39 -130 113 -56 114 -51 205 13 233 43 19 58 17 97 -9z"/>
<path d="M6465 9450 c-19 -7 -18 -9 8 -19 36 -14 35 -30 -13 -182 -41 -132
-56 -155 -91 -146 -12 3 -19 1 -17 -5 4 -12 179 -70 187 -62 3 2 -5 11 -17 20
-30 21 -28 47 13 179 l36 114 43 16 c65 25 116 1 116 -52 0 -31 -67 -252 -82
-270 -6 -7 -24 -13 -41 -13 -47 0 -23 -15 71 -44 99 -31 116 -32 80 -5 -16 11
-28 27 -28 35 0 8 18 74 40 145 44 144 47 167 25 208 -27 53 -102 64 -177 27
-17 -9 -32 -16 -34 -16 -1 0 2 15 7 32 5 18 9 36 9 40 0 10 -110 9 -135 -2z"/>
<path d="M7047 9376 c-20 -19 -58 -39 -82 -46 -51 -14 -57 -25 -20 -34 14 -4
25 -11 25 -16 0 -6 -25 -72 -55 -147 -60 -149 -66 -192 -35 -223 27 -27 89
-27 124 1 31 24 28 36 -3 19 -29 -15 -61 3 -61 35 0 20 93 271 105 284 3 2 23
-4 46 -13 34 -14 44 -15 50 -4 8 11 -21 31 -74 51 -5 1 2 31 16 65 29 71 21
78 -36 28z"/>
<path d="M7220 9148 c-56 -29 -105 -93 -126 -164 -21 -72 -6 -140 40 -188 63
-67 157 -67 234 0 44 38 38 54 -9 25 -89 -54 -189 13 -189 127 0 45 17 102 31
102 5 0 64 -27 130 -61 67 -33 124 -57 128 -54 3 4 6 37 6 75 0 63 -3 72 -30
101 -59 62 -138 76 -215 37z m144 -29 c21 -16 26 -29 26 -64 0 -24 -4 -46 -10
-50 -5 -3 -46 13 -92 36 l-82 41 32 29 c39 35 87 38 126 8z"/>
<path d="M7546 9002 c-3 -5 3 -12 14 -15 39 -10 33 -35 -36 -154 -85 -145 -93
-154 -136 -146 -43 8 -32 -2 65 -60 86 -52 112 -59 78 -23 -18 19 -22 31 -17
51 11 43 115 209 139 221 53 28 64 26 85 -11 22 -36 48 -45 70 -23 18 18 14
53 -7 73 -21 18 -84 18 -125 0 -19 -8 -18 -6 2 27 25 41 23 43 -33 53 -22 3
-52 9 -67 11 -14 3 -29 1 -32 -4z"/>
<path d="M7830 8835 c0 -4 10 -15 22 -25 l22 -18 -38 -58 c-78 -116 -147 -204
-162 -204 -8 0 -24 5 -35 10 -11 7 -19 7 -19 1 0 -10 131 -108 158 -118 16 -6
16 -5 0 14 -10 11 -18 28 -18 39 0 10 35 67 77 127 74 104 78 107 114 107 85
0 124 -41 94 -99 -26 -51 -135 -200 -158 -216 -15 -10 -25 -11 -39 -4 -11 6
-22 8 -26 5 -7 -7 -13 -2 74 -65 73 -52 113 -68 81 -33 -10 10 -17 27 -17 37
0 10 31 61 68 114 102 143 102 142 102 184 0 77 -46 112 -141 105 l-58 -4 20
27 c27 38 24 47 -19 58 -65 18 -102 24 -102 16z"/>
<path d="M2527 8780 c-73 -22 -137 -108 -137 -183 0 -54 35 -139 72 -174 88
-83 194 -91 274 -21 45 40 65 79 67 132 5 160 -137 288 -276 246z m72 -66 c60
-30 120 -99 146 -169 15 -38 16 -49 5 -75 -13 -32 -55 -60 -87 -60 -34 1 -98
37 -141 81 -98 100 -108 204 -22 238 36 14 41 14 99 -15z"/>
<path d="M2213 8541 c-45 -41 -60 -71 -23 -49 13 9 23 9 30 2 10 -10 102 -255
97 -260 -6 -6 -224 90 -242 107 -17 17 -18 22 -7 40 8 12 11 23 8 26 -6 7
-146 -115 -146 -127 0 -4 17 -6 38 -3 31 4 68 -8 211 -68 163 -69 175 -76 189
-109 8 -19 17 -56 20 -81 4 -45 4 -47 -34 -65 -42 -20 -55 -53 -34 -80 31 -36
91 1 110 67 14 48 7 75 -87 344 -59 168 -83 248 -79 268 7 36 -1 34 -51 -12z"/>
<path d="M8251 8508 c-35 -19 -48 -44 -35 -65 17 -27 41 -27 65 1 28 33 68 34
97 3 29 -31 28 -63 -3 -103 l-26 -33 -47 18 c-27 11 -76 25 -109 31 -52 10
-65 10 -95 -4 -78 -37 -90 -136 -21 -181 13 -9 46 -19 74 -22 37 -4 49 -10 45
-19 -4 -8 -9 -20 -12 -28 -11 -28 32 -56 85 -56 54 0 79 17 34 22 -15 2 -29
10 -30 18 -2 8 39 63 91 123 52 59 96 119 99 133 16 86 -136 202 -212 162z
m41 -206 l37 -17 -53 -58 c-50 -57 -53 -59 -90 -51 -74 13 -99 72 -51 119 30
31 100 34 157 7z"/>
<path d="M8700 8283 c-29 -9 -64 -12 -100 -8 l-54 6 24 -26 24 -25 -122 -124
c-79 -79 -122 -130 -122 -144 0 -52 40 -92 93 -92 35 0 67 12 61 22 -3 5 -14
6 -24 3 -27 -9 -64 30 -51 53 5 9 57 64 115 122 l106 104 28 -34 c21 -25 33
-32 47 -26 17 6 15 11 -18 44 l-37 37 52 52 c55 56 52 60 -22 36z"/>
<path d="M1854 8207 c-22 -23 -51 -55 -64 -70 l-25 -29 27 7 c35 9 40 -10 36
-122 l-3 -83 -147 135 c-81 74 -151 135 -156 135 -10 0 -52 -103 -52 -128 0
-12 4 -11 20 6 16 16 25 20 38 13 25 -14 380 -339 385 -354 2 -6 -2 -24 -10
-39 -7 -16 -9 -28 -4 -28 13 0 145 149 138 156 -3 4 -13 -1 -22 -10 -9 -9 -22
-16 -30 -16 -13 0 -145 107 -145 118 0 9 214 -9 226 -19 7 -6 10 -17 7 -25
-11 -29 14 -10 76 58 64 70 74 94 27 63 -23 -15 -42 -17 -149 -11 -181 11
-167 2 -167 110 0 73 4 99 21 130 11 21 19 40 16 42 -2 2 -21 -15 -43 -39z"/>
<path d="M8946 8154 c-17 -45 12 -82 54 -69 25 8 37 50 20 70 -17 20 -66 19
-74 -1z"/>
<path d="M8740 8051 c0 -5 7 -14 15 -21 8 -7 15 -18 15 -25 0 -16 -225 -215
-243 -215 -7 0 -23 7 -35 16 -12 8 -22 11 -22 7 0 -10 119 -146 132 -151 11
-5 10 16 -2 23 -33 20 10 70 197 229 45 39 79 74 77 78 -5 8 -118 68 -129 68
-3 0 -5 -4 -5 -9z"/>
<path d="M1505 7782 c-76 -37 -115 -96 -115 -178 0 -119 107 -224 229 -224 85
0 135 30 172 102 50 98 -3 237 -113 294 -49 25 -127 28 -173 6z m135 -87 c64
-32 126 -94 135 -133 8 -39 -17 -89 -51 -102 -62 -24 -165 7 -237 71 -55 48
-75 96 -57 140 27 64 111 74 210 24z"/>
<path d="M8860 7785 c-92 -29 -160 -117 -160 -209 0 -57 11 -85 50 -130 110
-124 350 -41 376 131 13 86 -32 169 -111 204 -47 22 -93 23 -155 4z m185 -59
c39 -39 41 -69 9 -134 -33 -66 -111 -134 -174 -153 -56 -17 -103 5 -120 55
-16 49 16 120 81 181 83 78 159 96 204 51z"/>
<path d="M5223 7628 c-100 -105 -201 -282 -222 -388 -26 -127 17 -229 124
-297 35 -22 45 -34 45 -55 0 -16 -4 -28 -9 -28 -4 0 -41 15 -82 34 -153 69
-299 92 -534 83 -182 -7 -337 -31 -725 -111 -368 -75 -463 -89 -620 -90 -122
0 -141 3 -192 25 -38 17 -65 36 -80 59 -38 56 -87 75 -198 75 -79 0 -102 -4
-137 -22 -55 -30 -73 -58 -73 -113 0 -37 5 -51 27 -73 31 -28 91 -57 122 -57
11 0 22 -4 25 -9 3 -5 -80 -200 -185 -433 -105 -232 -291 -646 -414 -918 -123
-272 -273 -605 -334 -740 l-110 -245 -85 -14 c-51 -8 -83 -18 -79 -24 11 -18
226 -115 345 -156 250 -86 469 -121 778 -126 287 -5 493 17 757 81 181 43 568
176 597 205 6 5 -15 9 -56 9 -101 0 -127 8 -142 44 -8 17 -110 254 -229 526
-535 1232 -766 1766 -769 1778 -2 9 15 19 51 28 30 8 60 19 66 24 7 6 34 2 74
-10 177 -56 370 -48 956 35 578 83 735 82 950 -4 97 -39 159 -84 181 -129 16
-35 16 -38 -5 -77 -11 -22 -21 -46 -21 -53 0 -7 21 -26 47 -42 63 -40 70 -54
37 -77 -40 -27 -94 -80 -94 -91 0 -6 17 -31 39 -55 43 -51 57 -94 71 -229 13
-128 13 -518 0 -518 -20 0 -60 -49 -60 -73 0 -13 9 -36 20 -50 l20 -25 -46
-46 c-43 -42 -46 -49 -41 -82 4 -20 16 -48 29 -61 21 -23 22 -25 5 -34 -27
-15 -21 -54 13 -82 l30 -26 0 -180 c0 -179 0 -180 -25 -205 -31 -31 -31 -41 0
-72 l24 -24 -19 -33 c-25 -41 -25 -61 0 -85 19 -18 19 -21 5 -55 -19 -46 -19
-127 -1 -171 l14 -34 -64 -65 c-67 -69 -85 -107 -65 -139 7 -11 11 -21 9 -22
-2 -2 -147 -36 -323 -76 -416 -94 -455 -109 -455 -173 0 -40 52 -88 127 -116
151 -56 378 -80 813 -88 693 -12 1086 41 1185 158 32 39 32 54 -3 89 -37 36
-89 52 -459 136 -195 44 -299 72 -293 78 30 30 -7 105 -89 179 l-41 37 16 32
c20 39 21 132 1 179 -14 33 -13 36 5 48 16 10 19 20 15 48 -4 20 -14 44 -23
54 -16 18 -16 20 10 40 33 26 33 52 1 77 l-25 20 0 179 0 179 30 29 c33 32 39
69 13 83 -15 9 -14 13 10 42 43 51 30 113 -33 155 l-29 19 20 32 c29 48 25 79
-16 110 l-35 26 0 194 c0 326 24 478 86 546 50 55 44 74 -34 122 -53 33 -52
50 6 89 24 16 46 36 49 44 3 8 -4 32 -16 53 -14 25 -20 47 -16 63 17 64 156
147 318 189 67 18 111 21 242 21 172 0 207 -3 620 -63 352 -51 435 -60 586
-64 145 -3 241 6 325 32 56 17 61 17 104 0 25 -9 57 -19 71 -22 l27 -6 -210
-482 c-116 -266 -268 -616 -338 -778 -483 -1116 -469 -1087 -502 -1094 -17 -3
-60 -6 -96 -6 -42 0 -62 -4 -56 -9 16 -17 283 -117 413 -156 156 -46 351 -89
511 -112 190 -27 598 -24 778 5 254 41 460 102 647 192 154 73 155 74 50 91
l-89 14 -103 230 c-57 127 -130 289 -163 360 -60 134 -195 434 -547 1215 -113
250 -214 472 -224 492 l-19 38 27 5 c105 23 163 69 163 131 0 85 -67 135 -190
142 -41 2 -94 -1 -118 -7 -44 -12 -107 -60 -116 -89 -3 -10 -34 -28 -68 -42
-56 -22 -77 -25 -188 -24 -152 1 -273 19 -620 90 -477 99 -546 108 -790 108
-201 -1 -222 -2 -314 -27 -55 -15 -128 -40 -164 -57 -35 -16 -66 -30 -68 -30
-2 0 -4 13 -4 28 0 22 10 35 45 60 133 94 157 237 70 420 -49 104 -187 292
-214 292 -4 0 -21 -15 -38 -32z m-2520 -2190 l-3 -1083 -412 -6 c-227 -4 -451
-10 -497 -14 -50 -5 -82 -4 -78 1 6 10 788 1743 904 2003 62 141 82 181 86
181 1 0 1 -487 0 -1082z m362 387 c119 -275 275 -635 347 -800 71 -165 170
-392 219 -504 49 -112 88 -206 86 -207 -2 -2 -133 3 -293 11 -159 8 -339 15
-400 15 -61 0 -145 3 -187 6 l-77 7 0 1086 1 1086 43 -100 c24 -55 142 -325
261 -600z m4695 -389 l0 -1084 -112 -5 c-281 -14 -843 -35 -846 -32 -3 3 135
323 740 1718 117 268 213 487 215 487 2 0 3 -488 3 -1084z m105 982 c475
-1050 936 -2080 933 -2083 -2 -3 -83 0 -179 5 -96 5 -317 10 -491 10 l-318 0
0 1087 c0 597 3 1083 6 1080 4 -3 26 -48 49 -99z"/>
<path d="M988 7402 c-53 -92 -108 -188 -123 -213 l-25 -47 54 -36 c65 -43 90
-47 53 -8 -42 44 -43 78 -5 144 l33 57 212 -122 c116 -67 221 -131 233 -142
21 -19 21 -31 4 -82 -14 -39 23 12 79 109 31 54 52 100 48 103 -5 2 -16 -6
-25 -20 -10 -15 -26 -25 -40 -25 -17 0 -444 234 -464 255 -8 7 68 114 89 125
13 7 38 9 65 5 24 -3 44 -4 44 -1 0 6 -115 66 -127 66 -4 0 -52 -76 -105 -168z"/>
<path d="M9203 7466 c4 -9 9 -22 12 -29 3 -7 -5 -22 -17 -34 -37 -33 -230
-143 -252 -143 -11 0 -28 8 -39 18 -29 26 -20 0 33 -91 48 -82 63 -95 54 -47
-4 17 -1 36 5 44 20 23 216 136 237 136 29 0 83 -37 96 -65 10 -21 8 -30 -9
-53 -18 -24 -234 -162 -254 -162 -5 0 -17 10 -29 22 -38 41 -31 10 16 -68 58
-97 68 -109 60 -68 -9 40 0 48 119 119 162 95 198 142 161 214 -17 32 -80 71
-116 71 -29 0 -25 17 10 35 17 9 30 19 30 24 0 7 -70 62 -108 85 -12 7 -14 5
-9 -8z"/>
<path d="M9411 6992 c-45 -36 -5 -75 55 -53 42 15 66 3 84 -39 11 -27 11 -34
-6 -56 -10 -14 -31 -33 -45 -41 -27 -16 -28 -16 -85 36 -98 88 -153 107 -214
76 -36 -18 -52 -47 -52 -90 0 -45 24 -78 77 -106 41 -22 42 -24 24 -37 -40
-28 -19 -82 41 -106 48 -19 77 -10 36 11 -14 7 -26 18 -26 23 0 6 60 40 133
75 139 69 167 91 167 132 0 120 -120 231 -189 175z m-66 -142 c23 -11 53 -33
68 -48 l28 -29 -70 -32 c-74 -34 -87 -33 -133 7 -36 31 -17 97 32 115 25 9 32
8 75 -13z"/>
<path d="M713 6890 c-33 -22 -63 -82 -63 -128 1 -68 56 -138 130 -163 34 -12
36 -19 15 -59 -13 -25 -13 -29 2 -34 18 -7 16 -10 32 32 8 17 15 32 17 32 2 0
68 -25 146 -56 158 -62 182 -81 172 -128 -11 -56 12 -15 55 93 22 58 38 107
34 110 -3 4 -8 0 -11 -8 -3 -8 -15 -25 -28 -38 l-23 -23 -78 29 c-43 16 -115
43 -160 61 l-82 33 19 47 c10 26 16 51 13 54 -14 14 -25 4 -43 -39 -11 -25
-23 -45 -28 -45 -18 0 -119 49 -135 65 -37 37 -12 85 52 102 42 11 61 36 45
61 -16 24 -44 25 -81 2z"/>
<path d="M9830 6724 c0 -3 4 -13 9 -23 11 -20 4 -34 -27 -50 -52 -27 -444
-171 -466 -171 -15 0 -30 8 -36 21 -26 47 -20 4 11 -78 38 -104 49 -120 49
-71 0 19 6 40 13 46 9 8 306 124 540 211 16 6 13 14 -29 64 -43 51 -64 68 -64
51z"/>
<path d="M818 6370 c-104 -31 -163 -133 -137 -236 22 -84 130 -164 223 -164
152 0 248 142 187 276 -42 93 -175 154 -273 124z m142 -96 c102 -30 147 -107
100 -167 -28 -36 -80 -50 -161 -45 -132 10 -220 83 -189 158 20 47 63 70 136
70 33 0 85 -7 114 -16z"/>
<path d="M10030 6187 c0 -27 -6 -40 -22 -51 -28 -18 -470 -119 -501 -114 -14
2 -27 15 -36 36 -15 33 -36 45 -27 15 3 -10 26 -112 52 -228 25 -115 49 -213
53 -216 10 -10 171 -19 171 -10 0 5 -15 12 -32 15 -47 9 -95 40 -112 74 -25
48 -52 200 -39 213 12 12 418 108 470 111 39 2 60 -14 68 -53 4 -16 11 -29 17
-29 6 0 8 10 5 23 -3 12 -15 69 -28 127 -24 113 -39 146 -39 87z"/>
<path d="M565 5693 c-4 -27 -9 -55 -11 -65 -3 -9 -1 -19 4 -22 6 -3 12 3 15
14 8 31 31 25 136 -35 150 -85 149 -75 16 -118 -128 -43 -168 -45 -173 -9 -7
47 -19 18 -30 -70 -11 -93 -9 -118 9 -85 15 26 52 42 235 101 l168 55 57 -35
c62 -37 77 -61 59 -94 -6 -12 -10 -35 -8 -53 2 -25 8 -33 26 -35 52 -8 79 57
48 116 -24 47 -60 72 -293 206 -180 103 -229 136 -231 154 -6 38 -20 24 -27
-25z"/>
<path d="M9858 5549 c-21 -12 -23 -42 -5 -58 8 -6 31 -10 52 -9 45 2 65 -19
65 -69 0 -39 -32 -64 -82 -67 -31 -1 -35 3 -66 61 -40 76 -89 129 -126 139
-45 11 -103 -12 -122 -48 -23 -43 -12 -91 31 -144 25 -30 31 -44 21 -44 -21 0
-46 -28 -46 -52 0 -25 61 -88 86 -88 16 0 15 2 -4 23 -27 28 -27 33 -4 42 15
6 238 35 270 35 8 0 27 13 43 29 26 26 29 36 29 91 0 75 -22 125 -64 151 -35
21 -53 23 -78 8z m-66 -150 c20 -29 34 -57 30 -60 -4 -4 -39 -10 -78 -13 -71
-7 -72 -7 -98 24 -29 36 -33 66 -11 97 35 51 105 30 157 -48z"/>
<path d="M510 5205 l0 -44 -71 -3 -72 -3 50 -32 c27 -18 63 -51 79 -75 l29
-42 3 38 3 38 62 -6 c34 -3 113 -7 175 -8 l114 -3 25 29 c31 36 26 77 -14 118
-36 38 -61 38 -33 0 22 -30 19 -56 -8 -67 -9 -3 -82 -3 -164 1 l-148 7 0 48
c0 37 -4 49 -15 49 -11 0 -15 -12 -15 -45z"/>
<path d="M9998 5145 c-11 -26 -19 -29 -268 -120 -68 -25 -128 -49 -133 -54 -5
-5 47 -36 124 -73 l134 -64 -133 -49 c-72 -27 -132 -54 -132 -60 0 -5 84 -44
187 -85 144 -58 191 -81 207 -103 l21 -29 6 29 c16 71 2 141 -16 83 -3 -11
-12 -20 -19 -20 -14 0 -238 89 -248 99 -11 9 218 93 245 89 14 -2 23 -11 25
-25 2 -13 8 -23 13 -23 5 0 9 45 9 100 0 55 -2 100 -5 100 -3 0 -10 -11 -15
-26 -6 -16 -26 -32 -55 -45 l-44 -20 -98 47 -98 46 125 44 c142 50 165 53 173
22 10 -35 14 -19 21 75 6 89 -3 112 -26 62z"/>
<path d="M890 4951 c0 -10 -6 -23 -13 -29 -7 -6 -97 -14 -205 -18 -105 -4
-192 -8 -192 -10 0 -2 12 -33 27 -69 28 -68 43 -82 43 -40 0 37 32 45 186 45
l134 0 20 -32 20 -33 0 103 c0 61 -4 102 -10 102 -5 0 -10 -8 -10 -19z"/>
<path d="M288 4899 c-28 -16 -23 -67 7 -81 21 -9 28 -8 45 7 25 23 26 47 2 68
-21 19 -30 20 -54 6z"/>
<path d="M760 4693 c-28 -15 -44 -37 -85 -118 -39 -78 -56 -102 -77 -109 -21
-8 -32 -6 -47 8 -48 43 -29 121 38 156 23 11 41 23 41 25 0 10 -115 4 -130 -6
-10 -7 -11 -12 -4 -15 8 -3 10 -26 7 -68 -8 -99 35 -156 119 -156 51 0 74 23
124 121 47 94 72 117 117 105 29 -7 52 -55 43 -90 -9 -35 -50 -81 -86 -96 -50
-21 -34 -29 43 -23 79 6 86 8 70 24 -6 6 -7 26 -3 49 26 141 -66 246 -170 193z"/>
<path d="M536 4334 c-35 -34 -11 -91 51 -123 l36 -18 -42 -7 c-22 -3 -41 -11
-41 -17 0 -16 60 -119 69 -119 5 0 6 10 4 23 -3 13 1 28 9 34 7 6 78 20 157
32 135 20 145 20 162 5 11 -10 19 -23 19 -31 0 -7 5 -13 10 -13 6 0 8 10 5 23
-4 19 -25 171 -25 183 0 2 -4 4 -10 4 -5 0 -10 -11 -10 -25 0 -37 -33 -52
-150 -70 -113 -17 -149 -14 -175 15 -15 16 -15 23 -4 54 10 28 10 38 0 50 -17
20 -45 20 -65 0z"/>
<path d="M9675 4200 c-108 -43 -179 -151 -179 -275 -1 -81 24 -142 81 -196 35
-35 47 -21 14 15 -103 113 -70 296 64 357 73 33 217 19 315 -31 112 -57 156
-177 104 -281 -28 -56 -113 -109 -176 -109 -10 0 -18 -4 -18 -9 0 -9 128 -31
182 -31 l31 0 -23 25 -23 25 27 39 c39 56 55 107 56 176 1 123 -61 220 -176
276 -86 43 -201 50 -279 19z"/>
<path d="M835 4040 c-3 -4 10 -14 30 -20 97 -32 115 -151 33 -227 -22 -21 -97
-58 -103 -51 -2 2 -17 63 -33 137 -17 73 -33 135 -36 138 -9 10 -79 -33 -99
-60 -47 -62 -36 -158 24 -218 63 -63 164 -74 264 -30 142 63 161 249 32 309
-51 24 -104 35 -112 22z m-92 -197 c25 -111 24 -116 -15 -107 -65 14 -99 56
-90 111 3 23 55 73 75 73 7 0 20 -34 30 -77z"/>
<path d="M9491 3627 c-82 -26 -141 -123 -127 -209 22 -137 193 -227 321 -169
99 45 141 161 94 258 -49 100 -179 155 -288 120z m191 -109 c165 -76 80 -233
-106 -198 -169 32 -238 138 -136 208 31 21 44 23 110 20 55 -3 91 -11 132 -30z"/>
<path d="M672 3568 c3 -7 13 -37 22 -65 10 -29 22 -53 28 -53 6 0 7 7 4 16 -4
9 -1 23 5 31 10 11 34 12 128 7 183 -11 179 -5 65 -107 -100 -88 -134 -103
-153 -70 -23 42 -18 -1 10 -85 29 -87 49 -110 49 -58 0 31 11 43 175 187 77
67 140 127 140 133 0 11 -224 33 -351 35 -45 1 -68 6 -87 21 -29 23 -41 26
-35 8z"/>
<path d="M1209 3264 c-1 -5 -1 -18 0 -30 3 -32 -23 -47 -194 -119 -88 -37
-162 -69 -164 -72 -3 -2 20 -28 49 -59 30 -30 56 -50 58 -44 2 6 -2 17 -9 26
-10 12 -10 18 2 29 17 17 263 125 285 125 8 0 22 -9 31 -20 33 -39 31 -19 -8
72 -39 93 -48 109 -50 92z"/>
<path d="M9257 3169 c-37 -89 -42 -125 -11 -81 8 12 25 22 37 22 12 -1 141
-52 287 -114 296 -127 278 -125 279 -24 1 60 -13 85 -23 43 -5 -18 -13 -25
-29 -25 -28 1 -452 181 -478 203 -14 12 -18 24 -13 42 14 56 -13 19 -49 -66z"/>
<path d="M8396 3137 c-28 -50 -113 -133 -175 -171 -72 -46 -37 -42 41 4 40 24
101 71 136 104 59 57 64 59 75 41 20 -37 99 -114 149 -146 l49 -32 22 21 c11
12 19 23 16 25 -2 1 -34 18 -70 36 -82 41 -177 120 -157 132 7 5 11 9 8 9 -3
0 -20 4 -37 9 -31 9 -33 7 -57 -32z"/>
<path d="M2050 3135 l0 -35 -115 0 c-70 0 -115 -4 -115 -10 0 -6 45 -10 115
-10 l115 0 0 -30 0 -30 -61 0 c-33 0 -69 5 -80 10 -18 10 -19 6 -19 -105 0
-108 1 -115 20 -115 11 0 20 7 20 15 0 11 12 15 46 15 l45 0 -20 -28 c-23 -33
-110 -101 -161 -127 -19 -10 -30 -20 -23 -22 17 -6 122 50 181 96 l52 41 0
-81 c0 -70 2 -80 16 -75 9 3 18 6 20 6 2 0 4 39 4 86 l0 86 55 -55 c31 -31 79
-67 107 -81 48 -24 53 -25 70 -10 17 16 13 19 -70 60 -48 23 -100 56 -116 73
l-30 31 52 0 c41 0 52 -3 52 -16 0 -9 7 -14 18 -12 14 3 17 17 20 88 2 46 8
90 14 97 8 10 6 17 -8 28 -23 17 -31 18 -39 5 -3 -5 -33 -10 -66 -10 -59 0
-59 0 -59 30 l0 30 115 0 c68 0 115 4 115 10 0 5 -12 17 -26 27 -25 16 -27 16
-39 0 -10 -13 -28 -17 -89 -17 -73 0 -76 1 -76 23 0 13 5 28 12 35 9 9 5 12
-20 12 -30 0 -32 -2 -32 -35z m0 -165 l0 -30 -60 0 -60 0 0 30 0 30 60 0 60 0
0 -30z m160 0 l0 -30 -60 0 -60 0 0 30 0 30 60 0 60 0 0 -30z m-160 -80 l0
-30 -60 0 -60 0 0 30 0 30 60 0 60 0 0 -30z m160 0 l0 -30 -60 0 -60 0 0 30 0
30 60 0 60 0 0 -30z"/>
<path d="M2628 3133 l-3 -38 -105 -3 c-192 -5 -138 -10 128 -11 144 0 262 2
262 7 0 4 -12 15 -26 25 -25 18 -26 18 -46 1 -14 -14 -40 -20 -94 -22 l-74 -4
0 29 c0 16 5 34 12 41 9 9 5 12 -19 12 -29 0 -32 -3 -35 -37z"/>
<path d="M3200 3085 l0 -85 -117 -2 -118 -2 110 -3 c60 -2 113 -7 117 -11 10
-10 -14 -97 -41 -149 -29 -59 -73 -106 -132 -143 -61 -40 -57 -50 8 -19 72 36
157 126 182 193 11 31 21 66 21 77 0 32 17 13 25 -28 13 -69 57 -142 122 -204
35 -32 69 -59 76 -59 14 1 53 28 46 33 -2 2 -25 15 -51 30 -91 52 -172 157
-192 249 l-6 27 127 3 128 3 -33 24 -33 23 -20 -21 c-17 -18 -31 -21 -100 -21
l-81 0 7 68 c4 37 9 75 11 85 4 13 -1 17 -25 17 l-31 0 0 -85z"/>
<path d="M3770 3166 c0 -2 7 -17 15 -32 8 -16 15 -36 15 -45 0 -24 28 -31 39
-11 11 20 -10 67 -38 82 -21 10 -31 13 -31 6z"/>
<path d="M3919 3113 l-34 -58 -128 -3 c-122 -2 -129 -2 -134 18 -8 30 -23 24
-23 -9 0 -17 -11 -42 -25 -59 -31 -37 -32 -54 -3 -50 21 3 39 28 52 71 5 16
21 17 191 16 113 -1 185 -5 185 -11 0 -5 -8 -23 -17 -39 -16 -27 -18 -27 -35
-12 -14 13 -21 14 -30 5 -8 -8 -55 -12 -140 -12 -79 0 -128 -4 -128 -10 0 -6
46 -10 117 -10 l116 0 -23 -25 c-13 -14 -34 -25 -47 -25 -19 0 -23 -5 -23 -30
l0 -30 -120 0 c-73 0 -120 -4 -120 -10 0 -6 47 -10 120 -10 l120 0 0 -66 0
-67 -51 7 c-34 5 -49 4 -44 -4 3 -5 15 -10 25 -10 10 0 25 -9 34 -21 13 -19
17 -20 43 -7 27 13 28 17 31 91 l3 77 119 0 c72 0 120 4 120 10 0 5 -12 17
-26 27 -24 16 -27 16 -36 0 -13 -23 -178 -25 -178 -3 0 18 46 54 116 91 28 15
65 40 82 56 17 16 36 29 43 29 7 0 2 11 -11 25 -21 22 -25 23 -40 10 -15 -13
-110 -23 -110 -11 0 2 22 27 50 54 47 47 49 50 27 56 -12 3 -25 6 -28 6 -3 0
-21 -26 -40 -57z"/>
<path d="M4830 3160 c0 -23 -62 -170 -95 -225 -20 -32 -34 -60 -31 -62 2 -2
22 18 45 44 l41 48 0 -162 c0 -90 3 -163 8 -163 27 1 31 22 34 198 2 100 0
182 -4 182 -12 0 45 114 62 124 12 8 11 11 -5 17 -29 11 -55 11 -55 -1z"/>
<path d="M4991 3082 c4 -100 4 -101 -66 -103 -16 0 -39 -5 -50 -10 -14 -6 2
-8 51 -4 l70 4 23 -77 c12 -42 33 -96 47 -119 35 -60 110 -123 146 -123 25 0
29 3 22 18 -4 9 -7 40 -6 67 l2 50 -16 -37 c-9 -21 -22 -38 -29 -38 -7 0 -32
21 -54 46 -40 46 -72 116 -85 185 l-7 37 92 8 c94 9 118 22 76 41 -20 9 -28 8
-43 -7 -25 -24 -121 -33 -129 -13 -11 29 -5 141 8 146 7 4 6 6 -5 6 -9 1 -24
4 -33 7 -15 6 -17 -2 -14 -84z"/>
<path d="M6080 3130 c-7 -22 -28 -63 -47 -91 -40 -61 -42 -70 -7 -38 l26 24
15 -22 c9 -13 19 -23 24 -23 17 0 9 29 -11 43 -17 12 -18 16 -6 32 12 17 14
17 29 -5 8 -12 20 -19 26 -16 15 9 3 34 -20 41 -28 9 -13 25 23 25 28 0 30 -2
23 -27 -9 -40 -61 -118 -102 -153 l-35 -31 -29 46 -29 46 35 69 c19 39 41 70
47 70 7 0 2 10 -10 22 -17 17 -24 20 -34 10 -15 -15 -62 -16 -89 -2 -19 10
-19 5 -19 -249 0 -227 2 -260 15 -255 11 5 15 22 15 70 0 51 3 64 15 64 9 0
18 -6 21 -14 6 -16 38 -10 54 9 6 7 11 33 12 58 0 42 4 48 42 74 22 15 46 26
51 24 23 -9 174 -11 179 -3 3 5 -4 18 -15 28 -19 17 -21 18 -30 1 -8 -13 -24
-17 -75 -17 l-65 0 35 46 c20 25 41 61 48 80 7 19 17 34 23 34 6 0 21 -24 34
-54 24 -58 94 -146 116 -146 7 0 17 6 24 13 8 11 0 21 -34 45 -25 17 -45 37
-45 43 0 6 19 34 41 61 39 46 41 51 26 66 -13 13 -19 13 -29 4 -7 -7 -29 -12
-50 -12 -21 0 -38 -4 -38 -10 0 -5 16 -10 35 -10 40 0 41 -3 16 -49 l-18 -34
-16 24 c-9 13 -24 46 -34 74 -14 41 -18 46 -22 28 -5 -17 -10 -20 -21 -13 -9
5 -19 5 -27 -1 -6 -6 -24 -9 -39 -7 -26 3 -27 4 -11 20 23 22 21 28 -6 28 -19
0 -27 -9 -37 -40z m-114 -84 l-23 -74 20 -31 c12 -20 20 -51 21 -84 1 -52 1
-52 -31 -55 l-33 -3 0 160 0 161 34 0 34 0 -22 -74z"/>
<path d="M6490 3159 c0 -5 4 -9 10 -9 5 0 20 -16 32 -35 13 -19 28 -35 34 -35
20 0 24 28 6 50 -18 22 -82 45 -82 29z"/>
<path d="M6750 3110 l0 -60 -59 0 c-33 0 -63 -4 -66 -10 -4 -6 18 -10 59 -10
l66 0 0 -60 0 -60 -80 0 c-47 0 -80 -4 -80 -10 0 -6 30 -10 70 -10 50 0 70 -4
69 -12 0 -7 -15 -47 -32 -88 -32 -74 -33 -75 -73 -80 -38 -5 -41 -7 -33 -28 6
-17 14 -21 31 -17 13 3 81 16 152 29 l128 23 20 -33 c23 -40 48 -45 48 -10 0
32 -37 84 -88 123 -60 46 -70 41 -26 -12 20 -25 35 -47 32 -50 -2 -2 -49 -7
-103 -11 l-99 -7 23 34 c12 19 34 58 49 87 l26 52 92 0 c51 0 95 4 99 10 3 5
-6 17 -20 26 -24 15 -27 15 -44 0 -11 -10 -35 -16 -69 -16 l-52 0 0 60 0 60
88 0 87 1 -29 25 c-27 24 -31 25 -41 10 -8 -11 -27 -16 -59 -16 l-46 0 0 50
c0 29 5 50 11 50 5 0 7 5 4 10 -3 6 -17 10 -31 10 -23 0 -24 -3 -24 -60z"/>
<path d="M7850 3135 l0 -35 -80 0 c-64 0 -80 3 -80 15 0 8 -4 15 -10 15 -5 0
-10 -9 -10 -21 0 -12 -14 -34 -31 -50 -30 -28 -34 -59 -9 -59 16 0 60 47 60
65 0 11 11 15 45 15 l45 0 -15 -37 c-21 -50 -46 -75 -101 -102 -60 -30 -50
-37 16 -12 63 24 115 71 131 118 10 30 14 33 50 33 l39 0 0 -60 c0 -57 2 -61
28 -71 30 -12 160 -5 174 9 5 5 3 20 -5 36 -13 25 -15 25 -20 6 -4 -18 -13
-20 -71 -20 l-66 0 0 50 0 50 55 0 c53 0 55 -1 45 -21 -18 -33 -4 -34 39 -2
40 30 41 30 21 48 -15 14 -23 15 -34 6 -9 -8 -44 -11 -97 -9 -77 3 -82 4 -84
26 -1 12 2 22 7 22 4 0 8 5 8 10 0 6 -11 10 -25 10 -22 0 -25 -4 -25 -35z"/>
<path d="M3669 3110 c28 -53 51 -65 51 -27 0 23 -47 77 -67 77 -6 0 1 -22 16
-50z"/>
<path d="M4573 3149 c-8 -8 -48 -10 -117 -7 l-106 4 0 -168 c0 -144 2 -168 15
-168 9 0 18 7 21 15 4 8 12 15 19 15 11 0 11 -8 3 -37 -15 -58 -52 -99 -114
-128 -72 -34 -64 -42 12 -14 73 27 128 80 143 137 9 31 17 42 31 42 18 0 20
-7 20 -85 0 -76 2 -85 21 -96 20 -10 123 -9 133 2 2 2 1 29 -2 59 l-6 55 -11
-40 c-11 -38 -14 -40 -53 -43 l-42 -3 0 75 c0 58 3 76 14 76 8 0 16 -7 20 -15
3 -8 12 -12 21 -9 12 5 15 30 15 149 0 91 4 146 11 150 7 5 4 14 -7 26 -20 22
-26 23 -41 8z m-3 -64 l0 -35 -90 0 -90 0 0 35 0 35 90 0 90 0 0 -35z m0 -90
l0 -35 -90 0 -90 0 0 35 0 35 90 0 90 0 0 -35z m0 -95 l0 -40 -90 0 -90 0 0
40 0 40 90 0 90 0 0 -40z"/>
<path d="M5320 2900 c0 -257 0 -261 20 -250 11 6 19 16 17 23 -1 9 46 13 191
15 189 2 192 2 192 -19 0 -14 5 -19 18 -17 15 3 17 24 20 236 1 143 6 232 12
232 18 0 11 19 -11 31 -15 8 -24 8 -32 0 -14 -14 -381 -15 -408 -1 -19 10 -19
5 -19 -250z m420 10 l0 -210 -190 2 c-105 2 -190 6 -190 11 0 4 0 97 0 207 l0
200 190 0 190 0 0 -210z"/>
<path d="M5650 3065 c-10 -12 -40 -15 -139 -17 -105 -1 -114 -2 -56 -7 l70 -6
3 -52 3 -53 -55 0 c-31 0 -56 -4 -56 -10 0 -5 25 -10 55 -10 l55 0 0 -60 0
-60 -75 0 c-43 0 -75 -4 -75 -10 0 -6 63 -10 170 -10 167 0 195 6 149 31 -15
8 -24 8 -32 0 -6 -6 -33 -11 -59 -11 l-48 0 0 60 0 60 59 0 c67 0 80 9 51 35
-19 18 -21 18 -33 1 -9 -12 -23 -17 -42 -14 -29 3 -30 5 -30 53 l0 50 74 3
c72 3 73 3 56 22 -22 24 -29 25 -45 5z"/>
<path d="M5600 2895 c0 -15 54 -84 61 -79 18 11 8 43 -20 63 -29 21 -41 26
-41 16z"/>
<path d="M7190 3145 c-9 -11 -34 -15 -92 -15 -50 0 -77 -4 -73 -10 3 -5 22
-10 41 -10 22 0 34 -5 34 -13 0 -33 -41 -170 -65 -216 -28 -57 -19 -69 14 -18
l21 32 0 -102 c0 -96 1 -103 20 -103 16 0 20 7 20 30 0 28 3 30 35 30 29 0 35
-4 35 -21 0 -15 4 -19 16 -15 9 3 18 6 20 6 2 0 4 52 4 115 0 85 3 115 13 115
6 0 1 9 -13 20 -16 12 -29 15 -34 9 -6 -5 -25 -9 -44 -9 -31 0 -34 2 -28 23 4
12 12 43 18 70 l11 47 84 0 83 0 0 -90 0 -90 -35 0 c-19 0 -35 -4 -35 -10 0
-5 16 -10 35 -10 30 0 35 -3 35 -24 0 -56 -39 -151 -81 -194 -22 -24 -39 -45
-36 -48 2 -3 24 10 48 28 52 40 89 108 98 180 l6 53 48 3 47 3 0 -130 c0 -110
2 -131 15 -131 13 0 15 21 15 130 l0 130 38 0 c48 0 57 8 35 32 -20 22 -39 23
-47 1 -14 -36 -27 7 -24 83 l3 79 38 5 39 5 -24 23 -25 22 -18 -20 c-16 -18
-31 -20 -123 -20 -88 0 -108 3 -132 20 -24 17 -29 18 -40 5z m245 -125 l0 -85
-42 -3 -43 -3 0 91 0 91 43 -3 42 -3 0 -85z m-255 -160 l0 -90 -35 0 -35 0 0
90 0 90 35 0 35 0 0 -90z"/>
<path d="M4280 3135 c-9 -11 -32 -15 -81 -15 -39 0 -69 -4 -69 -10 0 -5 18
-10 40 -10 l40 0 0 -70 0 -70 -41 0 c-24 0 -38 -4 -34 -10 3 -5 22 -10 41 -10
l35 0 -3 -77 -3 -76 -42 -15 c-45 -14 -48 -18 -34 -40 6 -11 30 -2 107 38 90
46 94 52 27 34 -22 -6 -23 -4 -23 65 l0 71 45 0 c50 0 55 8 24 36 -19 17 -21
18 -30 1 -6 -9 -17 -17 -24 -17 -12 0 -15 16 -15 70 l0 70 50 0 c54 0 61 7 32
33 -23 21 -26 21 -42 2z"/>
<path d="M5111 3112 c36 -45 59 -53 59 -24 0 24 -27 48 -64 58 l-30 7 35 -41z"/>
<path d="M6585 3023 c-14 -32 -40 -91 -58 -131 -22 -55 -37 -76 -56 -84 l-26
-10 23 -9 c20 -7 22 -15 22 -72 0 -72 4 -81 32 -66 18 10 19 18 13 87 -6 74
-5 82 39 206 26 71 44 131 42 133 -2 2 -16 -22 -31 -54z"/>
<path d="M1293 3025 l2 -39 -125 -68 c-135 -72 -180 -112 -180 -157 0 -46 39
-94 97 -117 l52 -20 -35 -19 c-19 -10 -34 -21 -34 -25 0 -4 24 -28 54 -53 52
-45 76 -53 54 -17 -6 9 -9 24 -5 33 7 18 247 147 275 147 11 0 25 -7 32 -15
32 -39 26 -7 -15 75 -25 50 -50 90 -55 90 -12 0 -13 -11 -1 -29 17 -27 -7 -49
-125 -111 l-116 -62 -39 17 c-67 31 -88 85 -46 122 32 30 230 133 255 133 12
0 27 -10 33 -22 7 -13 14 -18 16 -11 4 12 -54 134 -81 168 -15 19 -15 18 -13
-20z"/>
<path d="M2779 3024 c-10 -12 -35 -14 -138 -12 -69 2 -133 7 -142 11 -14 7
-16 -3 -15 -90 0 -54 4 -97 9 -95 4 1 12 2 17 2 6 0 10 7 10 15 0 12 13 15 55
15 l55 0 0 -90 0 -90 -47 -1 c-27 -1 -38 -4 -26 -6 13 -2 29 -13 37 -25 13
-18 17 -19 43 -6 28 13 28 14 31 116 l3 102 49 0 c35 0 52 -5 58 -16 18 -32
32 -3 32 63 0 46 4 69 14 77 13 9 11 14 -9 28 -20 16 -24 16 -36 2z m-1 -81
l3 -53 -130 0 -131 0 0 48 c0 27 3 52 7 56 4 3 61 5 127 4 l121 -3 3 -52z"/>
<path d="M6470 3003 c35 -42 70 -56 70 -28 0 17 -39 55 -56 55 -7 0 -21 3 -31
7 -12 4 -6 -7 17 -34z"/>
<path d="M9152 2944 c-44 -88 -48 -115 -11 -75 15 15 27 20 42 15 12 -4 133
-62 269 -130 137 -68 252 -124 257 -124 14 0 23 56 19 110 -4 44 -4 45 -16 18
-6 -16 -18 -28 -26 -28 -8 0 -118 51 -244 114 -230 115 -251 130 -236 170 3 9
2 16 -3 16 -5 0 -28 -39 -51 -86z"/>
<path d="M8520 2995 c-10 -12 -36 -15 -116 -15 -63 0 -104 -4 -104 -10 0 -6
56 -10 147 -10 l146 0 -23 25 c-27 29 -33 30 -50 10z"/>
<path d="M676 2974 c-22 -22 -20 -50 6 -68 28 -20 33 -20 52 0 22 21 20 61 -3
74 -27 14 -37 13 -55 -6z"/>
<path d="M7800 2915 l0 -44 -87 -4 -88 -3 88 -2 87 -2 -6 -27 c-15 -66 -65
-122 -141 -159 -26 -13 -40 -24 -30 -24 34 0 125 50 161 90 19 21 40 57 47 79
l12 41 54 0 53 0 0 -95 c0 -95 0 -96 28 -106 30 -12 140 -5 155 10 5 5 6 15 1
23 -10 15 -11 18 -14 56 -2 26 -2 26 -10 -6 -11 -47 -21 -54 -71 -50 l-44 3
-3 78 c-2 48 1 77 8 77 17 0 11 14 -11 28 -15 10 -24 11 -32 3 -6 -6 -33 -11
-59 -11 -48 0 -48 0 -48 33 0 18 5 38 12 45 9 9 4 12 -25 12 l-37 0 0 -45z"/>
<path d="M8615 2890 c-17 -18 -34 -20 -214 -22 -108 -1 -159 -4 -113 -5 45 -2
82 -8 82 -13 0 -6 -12 -39 -26 -74 -26 -66 -38 -76 -96 -76 -26 0 -27 -2 -17
-24 9 -20 16 -23 33 -16 11 5 75 16 141 25 66 8 134 18 152 21 28 5 33 2 47
-25 17 -33 43 -41 52 -17 10 25 -25 75 -79 111 -28 19 -55 35 -60 35 -4 0 7
-18 24 -40 18 -22 30 -42 28 -44 -2 -2 -55 -7 -116 -11 l-113 -7 47 76 46 76
124 0 c67 0 123 3 123 8 0 4 -11 15 -24 24 -23 16 -25 16 -41 -2z"/>
<path d="M6310 2875 c-10 -12 -37 -15 -131 -15 -73 0 -119 -4 -119 -10 0 -6
28 -10 65 -10 l65 0 0 -75 0 -75 -42 0 -42 0 39 -20 c22 -11 45 -20 52 -20 22
0 33 37 33 114 l0 75 68 3 c70 3 81 11 46 35 -18 12 -23 11 -34 -2z"/>
<path d="M2452 2740 c-41 -39 -71 -70 -67 -70 14 0 73 35 125 73 30 23 57 43
60 45 6 4 -22 22 -35 21 -5 0 -43 -31 -83 -69z"/>
<path d="M2799 2740 c38 -38 75 -70 81 -70 20 0 10 38 -17 65 -25 24 -112 75
-129 75 -3 0 26 -31 65 -70z"/>
<path d="M6089 2788 c-6 -13 -30 -42 -52 -65 -68 -71 -16 -49 70 29 39 35 41
39 23 48 -26 14 -28 13 -41 -12z"/>
<path d="M6270 2805 c0 -13 94 -124 101 -119 17 10 9 45 -15 68 -23 24 -86 61
-86 51z"/>
<path d="M9077 2736 c-63 -23 -93 -58 -108 -124 -10 -47 14 -121 51 -157 32
-30 42 -17 15 19 -8 11 -15 39 -15 62 0 99 117 155 222 106 l37 -17 -69 -115
c-38 -63 -69 -120 -70 -126 0 -20 58 -37 106 -31 67 7 121 63 138 144 30 135
-169 290 -307 239z m273 -186 c22 -53 -12 -112 -70 -122 -8 -1 -28 1 -43 5
-34 9 -33 11 24 108 39 67 42 70 59 54 10 -9 24 -29 30 -45z"/>
<path d="M8697 2520 c-56 -35 -112 -116 -127 -183 -22 -99 23 -187 95 -187 45
0 80 26 144 110 49 63 68 80 85 78 32 -5 31 -41 -3 -88 -16 -23 -35 -57 -41
-75 -23 -68 26 -159 92 -172 32 -6 35 -19 12 -44 -17 -19 -13 -49 6 -49 6 0
25 20 42 45 18 25 35 45 40 45 14 0 79 63 94 91 20 40 18 118 -6 156 -27 45
-72 66 -131 61 -49 -3 -49 -3 -55 32 -11 60 -31 83 -68 77 -32 -5 -32 -5 -44
52 -7 31 -17 62 -24 69 -20 20 -62 14 -111 -18z m96 -58 c9 -9 20 -29 25 -42
8 -22 0 -36 -70 -122 -81 -100 -109 -118 -137 -84 -18 21 -16 88 3 124 32 63
117 142 152 142 6 0 18 -8 27 -18z m236 -232 c41 -21 91 -73 91 -95 0 -50 -56
-94 -102 -80 -47 14 -108 57 -123 85 -21 40 -19 57 10 85 30 31 72 32 124 5z"/>
<path d="M1415 2477 c-33 -18 -116 -72 -184 -120 -133 -93 -159 -102 -198 -65
-13 12 -25 19 -28 17 -5 -6 112 -173 126 -177 13 -5 11 5 -7 33 -9 13 -13 33
-9 43 6 21 259 203 332 241 23 11 55 21 70 21 85 0 183 -100 183 -186 0 -38
-6 -51 -41 -89 -23 -25 -106 -90 -185 -145 -154 -108 -189 -120 -218 -78 -9
12 -18 19 -22 16 -5 -5 106 -177 137 -212 17 -19 20 3 4 28 -10 15 -14 33 -10
46 3 11 52 52 108 91 201 142 246 178 267 219 42 83 15 189 -70 278 -78 80
-156 92 -255 39z"/>
<path d="M8552 2038 c-66 -76 -77 -98 -38 -73 13 9 31 12 41 9 9 -4 79 -60
154 -125 75 -65 139 -119 143 -119 7 0 48 117 48 139 0 11 -6 9 -19 -9 -25
-32 -39 -25 -161 79 -106 91 -119 109 -102 146 20 43 -2 27 -66 -47z"/>
<path d="M1985 1865 c-22 -8 -41 -15 -42 -15 -2 0 -3 -7 -3 -15 0 -12 4 -13
19 -5 11 5 36 10 57 10 29 0 44 -8 76 -40 39 -39 40 -41 36 -98 -3 -44 -11
-68 -34 -100 l-29 -41 -102 101 c-113 113 -118 114 -149 33 -21 -57 -12 -105
28 -151 42 -47 77 -64 137 -64 62 0 94 12 147 56 181 148 71 405 -141 329z
m-6 -259 l63 -64 -26 -17 c-19 -13 -38 -16 -69 -12 -50 7 -77 35 -77 81 0 30
23 76 38 76 4 0 36 -29 71 -64z"/>
<path d="M8348 1831 c-27 -24 -32 -36 -36 -90 -2 -33 -7 -61 -10 -61 -2 0 -16
12 -29 26 -30 32 -39 25 -71 -55 -23 -56 -22 -78 2 -46 23 32 58 10 175 -111
l113 -116 49 48 c53 52 65 76 24 50 -13 -9 -30 -16 -36 -16 -6 0 -54 41 -105
92 -81 78 -94 96 -94 124 0 47 15 80 45 100 38 25 64 9 184 -117 l104 -110 53
52 c30 29 51 55 49 58 -3 2 -11 -1 -17 -7 -30 -30 -62 -13 -158 84 -52 52
-107 102 -122 110 -43 22 -84 17 -120 -15z"/>
<path d="M8972 1678 c-30 -30 -3 -82 40 -76 29 4 47 50 28 72 -15 19 -51 21
-68 4z"/>
<path d="M2310 1651 c18 -34 12 -48 -52 -126 -108 -131 -128 -165 -128 -211 0
-35 5 -47 30 -68 34 -28 86 -41 131 -32 36 7 40 13 -71 -120 -49 -59 -87 -111
-82 -115 11 -10 135 -49 140 -44 3 2 -6 13 -19 24 -22 18 -23 21 -9 44 31 51
315 387 332 393 9 3 27 0 38 -6 35 -19 35 -3 1 26 -134 112 -156 126 -125 78
24 -35 14 -55 -79 -163 -76 -90 -78 -91 -123 -91 -34 0 -51 6 -69 25 -43 43
-37 57 88 204 42 50 82 91 88 91 6 0 19 -5 31 -11 43 -23 25 1 -44 60 -75 63
-96 75 -78 42z"/>
<path d="M8078 1558 c-78 -59 -102 -89 -51 -63 37 19 45 12 138 -110 65 -86
75 -104 70 -129 -12 -67 -64 -109 -109 -88 -29 13 -174 196 -182 230 -4 15 0
30 11 42 39 43 3 28 -74 -31 -85 -65 -100 -85 -52 -66 37 14 45 7 141 -119 80
-104 84 -124 33 -184 -50 -60 -82 -42 -201 117 -66 87 -72 105 -45 135 9 10
14 20 11 23 -7 8 -167 -118 -162 -127 3 -4 14 -2 24 5 29 17 43 5 135 -113 44
-57 92 -112 106 -122 71 -53 166 5 183 113 6 35 8 38 26 29 10 -5 35 -10 55
-10 56 0 102 50 111 120 l7 54 27 -32 c14 -18 29 -32 33 -32 10 0 80 121 73
127 -3 4 -15 -2 -26 -12 -19 -17 -21 -17 -41 1 -36 33 -179 226 -179 242 0 8
7 23 16 33 36 40 -7 22 -78 -33z"/>
<path d="M2766 1301 c-3 -5 5 -16 19 -25 48 -31 48 -31 -147 -328 l-110 -168
-31 18 c-84 48 -114 102 -86 154 6 11 8 23 4 26 -7 7 -22 -12 -62 -79 l-23
-37 200 -131 c110 -72 206 -134 213 -137 8 -3 29 18 52 51 40 59 42 82 3 46
-35 -34 -66 -37 -112 -12 -97 51 -101 29 55 266 76 116 147 216 158 223 17 12
25 12 50 -1 17 -9 33 -12 35 -9 2 4 -45 40 -105 79 -59 40 -111 69 -113 64z"/>
</g>
</svg>
